Coordinates
version=1
nRows=54
nColumns=12
inDegrees=yes

Units are S.I. units (second, meters, Newtons, ...)
Angles are in degrees

endheader
time	SC_y	SC_z	SC_x	AC_y	AC_z	AC_x	GH_y	GH_z	GH_yy	EL_x	PS_y
       0.0              -28.01          28.38          44.82          63.44         -7.918         0.2888         -122.9        -0.5105          116.3          117.9          153.5
   0.01232              -28.01          28.38          44.83          63.44         -7.919         0.2867         -122.9        -0.5084          116.3          117.9          153.5
   0.02465              -28.01          28.37          44.83          63.44          -7.92         0.2844         -122.8        -0.5063          116.2          117.9          153.5
   0.03697              -28.01          28.37          44.84          63.44         -7.921          0.282         -122.8         -0.504          116.2          117.9          153.5
   0.04929              -28.01          28.37          44.84          63.44         -7.922         0.2794         -122.8        -0.5016          116.1          117.9          153.5
   0.06162              -28.01          28.37          44.85          63.44         -7.922         0.2766         -122.7         -0.499          116.1          117.9          153.5
   0.07394              -28.01          28.36          44.85          63.44         -7.923         0.2737         -122.7        -0.4962          116.0          117.9          153.5
   0.08627              -28.01          28.36          44.86          63.44         -7.924         0.2705         -122.6        -0.4932          115.9          117.9          153.5
   0.09859              -28.01          28.36          44.87          63.44         -7.926         0.2672         -122.5        -0.4901          115.9          117.9          153.5
    0.1109              -28.01          28.36          44.88          63.44         -7.927         0.2636         -122.5        -0.4866          115.8          117.9          153.5
    0.1232              -28.01          28.35          44.88          63.44         -7.928         0.2597         -122.4         -0.483          115.7          117.8          153.5
    0.1356              -28.01          28.35          44.89          63.44         -7.929         0.2555         -122.3         -0.479          115.7          117.8          153.5
    0.1479              -28.01          28.34           44.9          63.45         -7.931          0.251         -122.3        -0.4748          115.6          117.8          153.5
    0.1602              -28.02          28.34          44.91          63.45         -7.933         0.2462         -122.2        -0.4702          115.5          117.8          153.4
    0.1725              -28.02          28.34          44.93          63.45         -7.934         0.2409         -122.1        -0.4653          115.4          117.8          153.4
    0.1849              -28.02          28.33          44.94          63.45         -7.936         0.2352         -122.0        -0.4599          115.3          117.8          153.4
    0.1972              -28.02          28.32          44.95          63.45         -7.938          0.229         -121.9         -0.454          115.2          117.8          153.4
    0.2095              -28.02          28.32          44.97          63.45          -7.94         0.2223         -121.8        -0.4476          115.0          117.8          153.4
    0.2218              -28.02          28.31          44.98          63.45         -7.943         0.2149         -121.6        -0.4407          114.9          117.8          153.4
    0.2341              -28.02          28.31           45.0          63.45         -7.945         0.2068         -121.5        -0.4331          114.7          117.8          153.4
    0.2465              -28.02           28.3          45.02          63.45         -7.948          0.198         -121.3        -0.4247          114.6          117.8          153.4
    0.2588              -28.02          28.29          45.04          63.46         -7.952         0.1882         -121.2        -0.4155          114.4          117.8          153.4
    0.2711              -28.02          28.28          45.07          63.46         -7.955         0.1774         -121.0        -0.4053          114.2          117.8          153.4
    0.2834              -28.02          28.27          45.09          63.46         -7.959         0.1655         -120.8        -0.3941          114.0          117.8          153.4
    0.2958              -28.02          28.26          45.12          63.46         -7.963         0.1522         -120.5        -0.3815          113.7          117.8          153.4
    0.3081              -28.02          28.24          45.15          63.46         -7.968         0.1374         -120.3        -0.3675          113.4          117.8          153.4
    0.3204              -28.03          28.23          45.19          63.47         -7.974         0.1209         -120.0        -0.3519          113.1          117.8          153.4
    0.3327              -28.03          28.21          45.23          63.47          -7.98         0.1022         -119.7        -0.3343          112.8          117.7          153.3
    0.3451              -28.03          28.19          45.28          63.47         -7.987        0.08112         -119.3        -0.3144          112.4          117.7          153.3
    0.3574              -28.03          28.17          45.33          63.48         -7.995        0.05718         -118.9        -0.2918          111.9          117.7          153.3
    0.3697              -28.03          28.15          45.39          63.48         -8.004        0.02987         -118.4         -0.266          111.4          117.7          153.3
     0.382              -28.04          28.12          45.46          63.49         -8.014      -0.001485         -117.9        -0.2364          110.8          117.7          153.3
    0.3944              -28.04          28.09          45.54          63.49         -8.026       -0.03768         -117.2        -0.2022          110.1          117.6          153.2
    0.4067              -28.04          28.05          45.63           63.5          -8.04       -0.07974         -116.5        -0.1625          109.3          117.6          153.2
     0.419              -28.05          28.01          45.74          63.51         -8.056        -0.1289         -115.6         -0.116          108.4          117.6          153.2
    0.4313              -28.05          27.96          45.87          63.52         -8.075         -0.187         -114.6       -0.06124          107.3          117.5          153.1
    0.4436              -28.06           27.9          46.02          63.53         -8.098        -0.2559         -113.4       0.003858          106.0          117.5          153.1
     0.456              -28.07          27.82           46.2          63.54         -8.125        -0.3385         -112.0        0.08189          104.4          117.4          153.0
    0.4683              -28.07          27.73          46.42          63.56         -8.158        -0.4385         -110.2         0.1763          102.5          117.4          152.9
    0.4806              -28.09          27.63          46.69          63.58         -8.198        -0.5606         -108.1         0.2916          100.2          117.3          152.9
    0.4929               -28.1          27.49          47.02          63.61         -8.248        -0.7114         -105.5         0.4339          97.37          117.2          152.7
    0.5053              -28.12          27.33          47.43          63.64         -8.309        -0.8993         -102.2         0.6114          93.82          117.0          152.6
    0.5176              -28.14          27.12          47.96          63.68         -8.387         -1.136         -98.07          0.835          89.34          116.9          152.4
    0.5299              -28.16          26.85          48.62          63.73         -8.486         -1.437         -92.83          1.119          83.65          116.6          152.2
    0.5422               -28.2          26.51          49.47          63.79         -8.613         -1.822         -86.11          1.483          76.36          116.4          151.9
    0.5546              -28.24          26.07          50.55          63.88         -8.776         -2.317         -77.49           1.95          67.01          116.0          151.6
    0.5669              -28.29          25.51          51.94          63.98         -8.984         -2.948         -66.48          2.546          55.06          115.6          151.1
    0.5792              -28.36          24.81          53.69          64.12         -9.245         -3.742         -52.63          3.296          40.04          115.0          150.5
    0.5915              -28.45          23.96          55.82          64.28         -9.563          -4.71         -35.76           4.21          21.73          114.3          149.8
    0.6039              -28.55          22.96          58.29          64.47         -9.932         -5.832          -16.2          5.269         0.5152          113.5          149.0
    0.6162              -28.65          21.89          60.96          64.68         -10.33         -7.046          4.975          6.416         -22.46          112.7          148.1
    0.6285              -28.76          20.81          63.63          64.88         -10.73         -8.261          26.15          7.562         -45.43          111.8          147.2
    0.6408              -28.86          19.82           66.1          65.07          -11.1         -9.382          45.71          8.621         -66.65          111.0          146.4
    0.6531              -28.94          18.97          68.23          65.23         -11.42         -10.35          62.58          9.535         -84.96          110.3          145.7
